# xmcd CD database file
#
# Track frame offsets:
#	150
#	20418
#	36899
#	57273
#	85788
#	105143
#	129659
#	149604
#	166941
#	187648
#	199911
#	220522
#	242181
#
# Disc length: 3501 seconds
#
# Revision: 2
# Processed by: cddbd v1.5.1PL0 Copyright (c) Steve Scherf et al.
# Submitted via: CDex 1.51
#
DISCID=a80dab0d
DTITLE=Y.M.O. - Y.M.O BEST SELECTION
DYEAR=1900
DGENRE=Techno
TTITLE0=RYDEEN
TTITLE1=BEHIND THE MASK
TTITLE2=COSMIC SURFIN'
TTITLE3=TONG POO
TTITLE4=TECHNOPOLIS
TTITLE5=1,000 KNIVES
TTITLE6=TAISO
TTITLE7=NICE AGE
TTITLE8=KEY
TTITLE9=DAY TRIPPER
TTITLE10=U.T.
TTITLE11=SOUL MUSIC
TTITLE12=CUE
EXTD=
EXTT0=
EXTT1=
EXTT2=
EXTT3=
EXTT4=
EXTT5=
EXTT6=
EXTT7=
EXTT8=
EXTT9=
EXTT10=
EXTT11=
EXTT12=
PLAYORDER=
